<mxfile host="Electron" agent="Mozilla/5.0 (X11; Linux x86_64) AppleWebKit/537.36 (KHTML, like Gecko) draw.io/28.0.6 Chrome/138.0.7204.100 Electron/37.2.3 Safari/537.36" version="28.0.6">
  <diagram name="Ready-to-Fly Process" id="RTF-Process">
    <mxGraphModel dx="3137" dy="1421" grid="1" gridSize="10" guides="1" tooltips="1" connect="1" arrows="1" fold="1" page="1" pageScale="1" pageWidth="1100" pageHeight="850" math="0" shadow="0">
      <root>
        <mxCell id="0" />
        <mxCell id="1" parent="0" />
        <mxCell id="4uZiJ-rkuIo0SORuHt0V-8" value="" style="edgeStyle=orthogonalEdgeStyle;rounded=0;orthogonalLoop=1;jettySize=auto;html=1;entryX=0;entryY=0.5;entryDx=0;entryDy=0;" parent="1" source="n0" target="42Uh_s67vXzzx0qO9fMh-1" edge="1">
          <mxGeometry relative="1" as="geometry">
            <mxPoint x="-860" y="479.8299999999999" as="targetPoint" />
          </mxGeometry>
        </mxCell>
        <mxCell id="n0" value="Start&lt;br&gt;(FSAC)" style="rounded=1;whiteSpace=wrap;html=1;" parent="1" vertex="1">
          <mxGeometry x="-1040" y="450" width="120" height="60" as="geometry" />
        </mxCell>
        <mxCell id="mLs2Mze-VJqQUgzR3Upy-1" value="Revision History" style="swimlane;fontStyle=0;childLayout=stackLayout;horizontal=1;startSize=30;horizontalStack=0;resizeParent=1;resizeParentMax=0;resizeLast=0;collapsible=1;marginBottom=0;whiteSpace=wrap;html=1;" parent="1" vertex="1">
          <mxGeometry x="-823" y="45.14" width="193" height="120" as="geometry" />
        </mxCell>
        <mxCell id="mLs2Mze-VJqQUgzR3Upy-2" value="Document Creation - July 30 2025" style="text;strokeColor=none;fillColor=none;align=left;verticalAlign=middle;spacingLeft=4;spacingRight=4;overflow=hidden;points=[[0,0.5],[1,0.5]];portConstraint=eastwest;rotatable=0;whiteSpace=wrap;html=1;" parent="mLs2Mze-VJqQUgzR3Upy-1" vertex="1">
          <mxGeometry y="30" width="193" height="30" as="geometry" />
        </mxCell>
        <mxCell id="mLs2Mze-VJqQUgzR3Upy-3" value="Item 2" style="text;strokeColor=none;fillColor=none;align=left;verticalAlign=middle;spacingLeft=4;spacingRight=4;overflow=hidden;points=[[0,0.5],[1,0.5]];portConstraint=eastwest;rotatable=0;whiteSpace=wrap;html=1;" parent="mLs2Mze-VJqQUgzR3Upy-1" vertex="1">
          <mxGeometry y="60" width="193" height="30" as="geometry" />
        </mxCell>
        <mxCell id="mLs2Mze-VJqQUgzR3Upy-4" value="Item 3" style="text;strokeColor=none;fillColor=none;align=left;verticalAlign=middle;spacingLeft=4;spacingRight=4;overflow=hidden;points=[[0,0.5],[1,0.5]];portConstraint=eastwest;rotatable=0;whiteSpace=wrap;html=1;" parent="mLs2Mze-VJqQUgzR3Upy-1" vertex="1">
          <mxGeometry y="90" width="193" height="30" as="geometry" />
        </mxCell>
        <mxCell id="mLs2Mze-VJqQUgzR3Upy-5" value="&lt;h1 style=&quot;margin-top: 0px;&quot;&gt;&lt;span style=&quot;background-color: transparent; color: light-dark(rgb(0, 0, 0), rgb(255, 255, 255));&quot;&gt;Scope&lt;/span&gt;&lt;/h1&gt;&lt;h1 style=&quot;margin-top: 0px;&quot;&gt;&lt;span style=&quot;background-color: transparent; color: light-dark(rgb(0, 0, 0), rgb(255, 255, 255)); font-size: 12px; font-weight: normal;&quot;&gt;This document details the FSAC process. There are three paths whithin the FSAC process depending on the paltform to be tuned.&amp;nbsp;&amp;nbsp;&lt;/span&gt;&lt;/h1&gt;" style="text;html=1;whiteSpace=wrap;overflow=hidden;rounded=0;" parent="1" vertex="1">
          <mxGeometry x="-1040" y="40" width="180" height="230" as="geometry" />
        </mxCell>
        <mxCell id="42Uh_s67vXzzx0qO9fMh-1" value="Does FSAC Application Risk Exceeds Nominal Safety Margin?" style="rhombus;whiteSpace=wrap;html=1;spacing=18;" parent="1" vertex="1">
          <mxGeometry x="-823" y="410" width="180" height="140" as="geometry" />
        </mxCell>
        <mxCell id="42Uh_s67vXzzx0qO9fMh-2" value="" style="endArrow=classic;html=1;rounded=0;exitX=1;exitY=0.5;exitDx=0;exitDy=0;entryX=0;entryY=0.5;entryDx=0;entryDy=0;" parent="1" target="Ub7T0pqwvzMlkmULe2ej-13" edge="1">
          <mxGeometry width="50" height="50" relative="1" as="geometry">
            <mxPoint x="-643" y="480" as="sourcePoint" />
            <mxPoint x="-580" y="480" as="targetPoint" />
          </mxGeometry>
        </mxCell>
        <mxCell id="42Uh_s67vXzzx0qO9fMh-3" value="&lt;div&gt;No&lt;/div&gt;" style="text;html=1;align=center;verticalAlign=middle;whiteSpace=wrap;rounded=0;" parent="1" vertex="1">
          <mxGeometry x="-650" y="460" width="43" height="30" as="geometry" />
        </mxCell>
        <mxCell id="42Uh_s67vXzzx0qO9fMh-5" value="Yes" style="text;html=1;align=center;verticalAlign=middle;whiteSpace=wrap;rounded=0;" parent="1" vertex="1">
          <mxGeometry x="-783" y="570" width="60" height="30" as="geometry" />
        </mxCell>
        <mxCell id="42Uh_s67vXzzx0qO9fMh-6" value="" style="endArrow=classic;html=1;rounded=0;exitX=0.5;exitY=1;exitDx=0;exitDy=0;entryX=0;entryY=0.5;entryDx=0;entryDy=0;" parent="1" target="42Uh_s67vXzzx0qO9fMh-13" edge="1">
          <mxGeometry width="50" height="50" relative="1" as="geometry">
            <mxPoint x="-733.29" y="550" as="sourcePoint" />
            <mxPoint x="-733" y="600" as="targetPoint" />
            <Array as="points">
              <mxPoint x="-733" y="620" />
            </Array>
          </mxGeometry>
        </mxCell>
        <mxCell id="42Uh_s67vXzzx0qO9fMh-7" value="* e.g. Large Drone" style="text;html=1;align=center;verticalAlign=middle;whiteSpace=wrap;rounded=0;" parent="1" vertex="1">
          <mxGeometry x="-733" y="530" width="140" height="30" as="geometry" />
        </mxCell>
        <mxCell id="42Uh_s67vXzzx0qO9fMh-11" value="&lt;div&gt;Condition&lt;/div&gt;" style="text;html=1;align=center;verticalAlign=middle;whiteSpace=wrap;rounded=0;" parent="1" vertex="1">
          <mxGeometry x="-763" y="430" width="60" height="30" as="geometry" />
        </mxCell>
        <mxCell id="42Uh_s67vXzzx0qO9fMh-12" style="edgeStyle=orthogonalEdgeStyle;rounded=0;orthogonalLoop=1;jettySize=auto;html=1;exitX=1;exitY=0.5;exitDx=0;exitDy=0;entryX=0.5;entryY=1;entryDx=0;entryDy=0;" parent="1" source="42Uh_s67vXzzx0qO9fMh-13" target="Ub7T0pqwvzMlkmULe2ej-11" edge="1">
          <mxGeometry relative="1" as="geometry">
            <mxPoint x="170" y="620" as="targetPoint" />
          </mxGeometry>
        </mxCell>
        <mxCell id="42Uh_s67vXzzx0qO9fMh-13" value="Alternative 1: Manual Tuning Involved" style="shape=parallelogram;perimeter=parallelogramPerimeter;whiteSpace=wrap;html=1;fixedSize=1;fontStyle=1;fontSize=16;" parent="1" vertex="1">
          <mxGeometry x="-180" y="590" width="210" height="60" as="geometry" />
        </mxCell>
        <mxCell id="42Uh_s67vXzzx0qO9fMh-14" value="Alternative 2: Sequential Tuning from Take-off" style="shape=parallelogram;perimeter=parallelogramPerimeter;whiteSpace=wrap;html=1;fixedSize=1;fontStyle=1;fontSize=16;" parent="1" vertex="1">
          <mxGeometry x="-180" y="700" width="210" height="60" as="geometry" />
        </mxCell>
        <mxCell id="42Uh_s67vXzzx0qO9fMh-15" value="" style="endArrow=classic;html=1;rounded=0;exitX=0.5;exitY=1;exitDx=0;exitDy=0;entryX=0;entryY=0.5;entryDx=0;entryDy=0;" parent="1" source="42Uh_s67vXzzx0qO9fMh-1" target="42Uh_s67vXzzx0qO9fMh-14" edge="1">
          <mxGeometry width="50" height="50" relative="1" as="geometry">
            <mxPoint x="-503" y="770" as="sourcePoint" />
            <mxPoint x="-453" y="720" as="targetPoint" />
            <Array as="points">
              <mxPoint x="-733" y="730" />
            </Array>
          </mxGeometry>
        </mxCell>
        <mxCell id="42Uh_s67vXzzx0qO9fMh-16" style="edgeStyle=orthogonalEdgeStyle;rounded=0;orthogonalLoop=1;jettySize=auto;html=1;exitX=1;exitY=0.5;exitDx=0;exitDy=0;entryX=0.5;entryY=1;entryDx=0;entryDy=0;" parent="1" source="42Uh_s67vXzzx0qO9fMh-14" target="Ub7T0pqwvzMlkmULe2ej-11" edge="1">
          <mxGeometry relative="1" as="geometry">
            <mxPoint x="257" y="620" as="targetPoint" />
            <mxPoint x="-63" y="630" as="sourcePoint" />
          </mxGeometry>
        </mxCell>
        <mxCell id="42Uh_s67vXzzx0qO9fMh-19" value="" style="rounded=1;whiteSpace=wrap;html=1;fillColor=none;dashed=1;dashPattern=8 8;" parent="1" vertex="1">
          <mxGeometry x="-1045" y="1595" width="355" height="320" as="geometry" />
        </mxCell>
        <mxCell id="42Uh_s67vXzzx0qO9fMh-41" value="Get Initial Tuning of Roll, Pitch, and Yaw Rate by RC flying assistance." style="rounded=0;whiteSpace=wrap;html=1;" parent="1" vertex="1">
          <mxGeometry x="-1055" y="1110" width="120" height="70" as="geometry" />
        </mxCell>
        <mxCell id="42Uh_s67vXzzx0qO9fMh-42" value="Get Initial Tuning of Altitude Rate. Use RC flying." style="rounded=0;whiteSpace=wrap;html=1;" parent="1" vertex="1">
          <mxGeometry x="-1055" y="1210" width="120" height="70" as="geometry" />
        </mxCell>
        <mxCell id="42Uh_s67vXzzx0qO9fMh-43" value="" style="endArrow=classic;html=1;rounded=0;entryX=0.5;entryY=0;entryDx=0;entryDy=0;" parent="1" edge="1">
          <mxGeometry width="50" height="50" relative="1" as="geometry">
            <mxPoint x="-995" y="1170" as="sourcePoint" />
            <mxPoint x="-995" y="1210" as="targetPoint" />
          </mxGeometry>
        </mxCell>
        <mxCell id="42Uh_s67vXzzx0qO9fMh-44" value="Fly by RC. Auto-tune Roll, Pitch, then Altitude." style="rounded=0;whiteSpace=wrap;html=1;" parent="1" vertex="1">
          <mxGeometry x="-855" y="1110" width="120" height="70" as="geometry" />
        </mxCell>
        <mxCell id="42Uh_s67vXzzx0qO9fMh-45" value="" style="endArrow=classic;html=1;rounded=0;exitX=0.5;exitY=1;exitDx=0;exitDy=0;entryX=0;entryY=0.5;entryDx=0;entryDy=0;" parent="1" source="42Uh_s67vXzzx0qO9fMh-42" target="42Uh_s67vXzzx0qO9fMh-48" edge="1">
          <mxGeometry width="50" height="50" relative="1" as="geometry">
            <mxPoint x="-895" y="1000" as="sourcePoint" />
            <mxPoint x="-725" y="1000" as="targetPoint" />
            <Array as="points">
              <mxPoint x="-995" y="1305" />
            </Array>
          </mxGeometry>
        </mxCell>
        <mxCell id="42Uh_s67vXzzx0qO9fMh-46" value="Fine-tune yaw." style="rounded=0;whiteSpace=wrap;html=1;" parent="1" vertex="1">
          <mxGeometry x="-635" y="1110" width="120" height="70" as="geometry" />
        </mxCell>
        <mxCell id="42Uh_s67vXzzx0qO9fMh-47" value="" style="endArrow=classic;html=1;rounded=0;exitX=1;exitY=0.5;exitDx=0;exitDy=0;entryX=0;entryY=0.5;entryDx=0;entryDy=0;" parent="1" source="42Uh_s67vXzzx0qO9fMh-44" target="42Uh_s67vXzzx0qO9fMh-46" edge="1">
          <mxGeometry width="50" height="50" relative="1" as="geometry">
            <mxPoint x="-985.29" y="1170" as="sourcePoint" />
            <mxPoint x="-985" y="1220" as="targetPoint" />
          </mxGeometry>
        </mxCell>
        <mxCell id="42Uh_s67vXzzx0qO9fMh-48" value="RC now commands Roll, Pitch, Yaw rate, and Altitude rate." style="rounded=0;whiteSpace=wrap;html=1;" parent="1" vertex="1">
          <mxGeometry x="-855" y="1270" width="120" height="70" as="geometry" />
        </mxCell>
        <mxCell id="42Uh_s67vXzzx0qO9fMh-49" value="" style="endArrow=classic;html=1;rounded=0;exitX=0.5;exitY=0;exitDx=0;exitDy=0;" parent="1" source="42Uh_s67vXzzx0qO9fMh-48" target="42Uh_s67vXzzx0qO9fMh-44" edge="1">
          <mxGeometry width="50" height="50" relative="1" as="geometry">
            <mxPoint x="-985.29" y="1170" as="sourcePoint" />
            <mxPoint x="-985" y="1220" as="targetPoint" />
          </mxGeometry>
        </mxCell>
        <mxCell id="42Uh_s67vXzzx0qO9fMh-50" value="RC still commands Roll, Pitch, Yaw rate, and Altitude rate." style="rounded=0;whiteSpace=wrap;html=1;" parent="1" vertex="1">
          <mxGeometry x="-635" y="1270" width="120" height="70" as="geometry" />
        </mxCell>
        <mxCell id="42Uh_s67vXzzx0qO9fMh-51" value="" style="endArrow=classic;html=1;rounded=0;exitX=0.5;exitY=1;exitDx=0;exitDy=0;entryX=0.5;entryY=0;entryDx=0;entryDy=0;" parent="1" source="42Uh_s67vXzzx0qO9fMh-46" target="42Uh_s67vXzzx0qO9fMh-50" edge="1">
          <mxGeometry width="50" height="50" relative="1" as="geometry">
            <mxPoint x="-805" y="1280" as="sourcePoint" />
            <mxPoint x="-805" y="1190" as="targetPoint" />
          </mxGeometry>
        </mxCell>
        <mxCell id="42Uh_s67vXzzx0qO9fMh-52" value="Fly by RC. Auto-tune Lateral Loops." style="rounded=0;whiteSpace=wrap;html=1;" parent="1" vertex="1">
          <mxGeometry x="-425" y="1270" width="120" height="70" as="geometry" />
        </mxCell>
        <mxCell id="42Uh_s67vXzzx0qO9fMh-53" value="" style="endArrow=classic;html=1;rounded=0;exitX=1;exitY=0.5;exitDx=0;exitDy=0;entryX=0;entryY=0.5;entryDx=0;entryDy=0;" parent="1" source="42Uh_s67vXzzx0qO9fMh-50" target="42Uh_s67vXzzx0qO9fMh-52" edge="1">
          <mxGeometry width="50" height="50" relative="1" as="geometry">
            <mxPoint x="-725" y="1155" as="sourcePoint" />
            <mxPoint x="-625" y="1155" as="targetPoint" />
          </mxGeometry>
        </mxCell>
        <mxCell id="42Uh_s67vXzzx0qO9fMh-54" value="" style="endArrow=classic;html=1;rounded=0;exitX=0.5;exitY=0;exitDx=0;exitDy=0;entryX=0.5;entryY=1;entryDx=0;entryDy=0;" parent="1" source="42Uh_s67vXzzx0qO9fMh-52" target="42Uh_s67vXzzx0qO9fMh-56" edge="1">
          <mxGeometry width="50" height="50" relative="1" as="geometry">
            <mxPoint x="-365.5899999999999" y="1260" as="sourcePoint" />
            <mxPoint x="-365.5899999999999" y="1170" as="targetPoint" />
          </mxGeometry>
        </mxCell>
        <mxCell id="42Uh_s67vXzzx0qO9fMh-55" style="edgeStyle=orthogonalEdgeStyle;rounded=0;orthogonalLoop=1;jettySize=auto;html=1;exitX=0.5;exitY=0;exitDx=0;exitDy=0;entryX=0.5;entryY=1;entryDx=0;entryDy=0;" parent="1" source="42Uh_s67vXzzx0qO9fMh-56" target="42Uh_s67vXzzx0qO9fMh-60" edge="1">
          <mxGeometry relative="1" as="geometry" />
        </mxCell>
        <mxCell id="42Uh_s67vXzzx0qO9fMh-56" value="Carefully check new tuning" style="rounded=0;whiteSpace=wrap;html=1;" parent="1" vertex="1">
          <mxGeometry x="-425" y="1110" width="120" height="70" as="geometry" />
        </mxCell>
        <mxCell id="42Uh_s67vXzzx0qO9fMh-57" value="&lt;h1 style=&quot;margin-top: 0px;&quot;&gt;&lt;font style=&quot;font-size: 24px;&quot;&gt;&lt;span style=&quot;text-align: center;&quot;&gt;Alternative 1: Manual Tuning Involved&lt;/span&gt;&lt;/font&gt;&lt;/h1&gt;&lt;p&gt;Use this procedure when confidence is low and not all pre-flight checks can be performed&lt;/p&gt;" style="text;html=1;whiteSpace=wrap;overflow=hidden;rounded=0;" parent="1" vertex="1">
          <mxGeometry x="-1045" y="890" width="510" height="80" as="geometry" />
        </mxCell>
        <mxCell id="42Uh_s67vXzzx0qO9fMh-58" style="edgeStyle=orthogonalEdgeStyle;rounded=0;orthogonalLoop=1;jettySize=auto;html=1;exitX=0.5;exitY=1;exitDx=0;exitDy=0;entryX=0.5;entryY=0;entryDx=0;entryDy=0;" parent="1" source="42Uh_s67vXzzx0qO9fMh-59" target="42Uh_s67vXzzx0qO9fMh-41" edge="1">
          <mxGeometry relative="1" as="geometry" />
        </mxCell>
        <mxCell id="42Uh_s67vXzzx0qO9fMh-59" value="START" style="rounded=1;whiteSpace=wrap;html=1;fontSize=14;" parent="1" vertex="1">
          <mxGeometry x="-1055" y="1000" width="120" height="60" as="geometry" />
        </mxCell>
        <mxCell id="42Uh_s67vXzzx0qO9fMh-60" value="END" style="rounded=1;whiteSpace=wrap;html=1;fontSize=14;" parent="1" vertex="1">
          <mxGeometry x="-425" y="1000" width="120" height="60" as="geometry" />
        </mxCell>
        <mxCell id="42Uh_s67vXzzx0qO9fMh-61" value="&lt;h1 style=&quot;margin-top: 0px;&quot;&gt;&lt;span style=&quot;text-align: center; background-color: initial;&quot;&gt;&lt;font style=&quot;font-size: 24px;&quot;&gt;Alternative 2: Sequential Tuning from Take-off&lt;/font&gt;&lt;/span&gt;&lt;/h1&gt;&lt;h1 style=&quot;margin-top: 0px;&quot;&gt;&lt;span style=&quot;background-color: initial; font-weight: normal;&quot;&gt;&lt;font style=&quot;font-size: 12px;&quot;&gt;Use this procedure for minimal involvement of human operators in the process and no manual tuning&lt;/font&gt;&lt;/span&gt;&lt;br&gt;&lt;/h1&gt;" style="text;html=1;whiteSpace=wrap;overflow=hidden;rounded=0;" parent="1" vertex="1">
          <mxGeometry x="-1030" y="1430" width="690" height="80" as="geometry" />
        </mxCell>
        <mxCell id="42Uh_s67vXzzx0qO9fMh-62" value="END" style="rounded=1;whiteSpace=wrap;html=1;fontSize=14;fillColor=#60a917;fontColor=#ffffff;strokeColor=#2D7600;" parent="1" vertex="1">
          <mxGeometry x="-30" y="2390" width="120" height="60" as="geometry" />
        </mxCell>
        <mxCell id="42Uh_s67vXzzx0qO9fMh-74" style="edgeStyle=orthogonalEdgeStyle;rounded=0;orthogonalLoop=1;jettySize=auto;html=1;exitX=1;exitY=0.5;exitDx=0;exitDy=0;entryX=0;entryY=0.5;entryDx=0;entryDy=0;" parent="1" source="42Uh_s67vXzzx0qO9fMh-75" target="42Uh_s67vXzzx0qO9fMh-76" edge="1">
          <mxGeometry relative="1" as="geometry" />
        </mxCell>
        <mxCell id="42Uh_s67vXzzx0qO9fMh-75" value="Take-off and ensure the drone is within safe flight envelope. &lt;br&gt;- No wind condition is assumed&lt;br&gt;- Pilot roll/pitch/altitude inputs are summed with MRFT output&lt;div&gt;- Pilot inputs must be slow changing and only when necessary&lt;br&gt;- Pilot focus would be to keep the UAV within a safe boundry and to prevent hight translational speeds, not to hover precisly.&lt;br&gt;- Excessive pilot actions would disturb normal workflow.&lt;/div&gt;" style="rounded=0;whiteSpace=wrap;html=1;" parent="1" vertex="1">
          <mxGeometry x="-660" y="2020" width="200" height="220" as="geometry" />
        </mxCell>
        <mxCell id="42Uh_s67vXzzx0qO9fMh-76" value="Wait for the drone to get in-flight automatic tuning of roll/pitch/altitude" style="rounded=0;whiteSpace=wrap;html=1;" parent="1" vertex="1">
          <mxGeometry x="-60" y="1580" width="180" height="80" as="geometry" />
        </mxCell>
        <mxCell id="42Uh_s67vXzzx0qO9fMh-77" style="edgeStyle=orthogonalEdgeStyle;rounded=0;orthogonalLoop=1;jettySize=auto;html=1;exitX=0.5;exitY=1;exitDx=0;exitDy=0;entryX=0.5;entryY=0;entryDx=0;entryDy=0;" parent="1" source="42Uh_s67vXzzx0qO9fMh-78" target="42Uh_s67vXzzx0qO9fMh-81" edge="1">
          <mxGeometry relative="1" as="geometry" />
        </mxCell>
        <mxCell id="42Uh_s67vXzzx0qO9fMh-78" value="Take-over the drone through Roll/Pitch/Yaw-rate/Altitude-rate control and land it.&lt;div&gt;Note: the piolt can revert to the auto-tuning flight mode for safety&lt;/div&gt;" style="rounded=0;whiteSpace=wrap;html=1;" parent="1" vertex="1">
          <mxGeometry x="-60" y="1700" width="180" height="80" as="geometry" />
        </mxCell>
        <mxCell id="42Uh_s67vXzzx0qO9fMh-79" style="edgeStyle=orthogonalEdgeStyle;rounded=0;orthogonalLoop=1;jettySize=auto;html=1;exitX=0.5;exitY=1;exitDx=0;exitDy=0;entryX=0.5;entryY=0;entryDx=0;entryDy=0;" parent="1" source="42Uh_s67vXzzx0qO9fMh-76" target="42Uh_s67vXzzx0qO9fMh-78" edge="1">
          <mxGeometry relative="1" as="geometry">
            <mxPoint x="60" y="1700" as="sourcePoint" />
            <mxPoint x="60" y="1750" as="targetPoint" />
          </mxGeometry>
        </mxCell>
        <mxCell id="42Uh_s67vXzzx0qO9fMh-80" style="edgeStyle=orthogonalEdgeStyle;rounded=0;orthogonalLoop=1;jettySize=auto;html=1;exitX=0.5;exitY=1;exitDx=0;exitDy=0;entryX=0.5;entryY=0;entryDx=0;entryDy=0;" parent="1" source="42Uh_s67vXzzx0qO9fMh-81" target="42Uh_s67vXzzx0qO9fMh-83" edge="1">
          <mxGeometry relative="1" as="geometry" />
        </mxCell>
        <mxCell id="42Uh_s67vXzzx0qO9fMh-81" value="Prepare for X and Y tuning, perform all preflights checks" style="rounded=0;whiteSpace=wrap;html=1;" parent="1" vertex="1">
          <mxGeometry x="-60" y="1820" width="180" height="80" as="geometry" />
        </mxCell>
        <mxCell id="42Uh_s67vXzzx0qO9fMh-82" style="edgeStyle=orthogonalEdgeStyle;rounded=0;orthogonalLoop=1;jettySize=auto;html=1;exitX=0.5;exitY=1;exitDx=0;exitDy=0;entryX=0.5;entryY=0;entryDx=0;entryDy=0;" parent="1" source="42Uh_s67vXzzx0qO9fMh-83" target="42Uh_s67vXzzx0qO9fMh-84" edge="1">
          <mxGeometry relative="1" as="geometry" />
        </mxCell>
        <mxCell id="42Uh_s67vXzzx0qO9fMh-83" value="Take-off with x and y MRFT active&amp;nbsp;" style="rounded=0;whiteSpace=wrap;html=1;" parent="1" vertex="1">
          <mxGeometry x="-60" y="1940" width="180" height="80" as="geometry" />
        </mxCell>
        <mxCell id="42Uh_s67vXzzx0qO9fMh-84" value="Wait for the drone to get in-flight automatic tuning&lt;div&gt;Note: the piolt can revert to the&amp;nbsp;&lt;span style=&quot;background-color: initial;&quot;&gt;Roll/Pitch/Yaw-rate/Altitude-rate control mode for safety&lt;/span&gt;&lt;br&gt;&lt;/div&gt;" style="rounded=0;whiteSpace=wrap;html=1;" parent="1" vertex="1">
          <mxGeometry x="-60" y="2050" width="180" height="80" as="geometry" />
        </mxCell>
        <mxCell id="42Uh_s67vXzzx0qO9fMh-85" style="edgeStyle=orthogonalEdgeStyle;rounded=0;orthogonalLoop=1;jettySize=auto;html=1;exitX=1;exitY=0.5;exitDx=0;exitDy=0;entryX=0;entryY=0.5;entryDx=0;entryDy=0;" parent="1" source="42Uh_s67vXzzx0qO9fMh-86" target="42Uh_s67vXzzx0qO9fMh-87" edge="1">
          <mxGeometry relative="1" as="geometry" />
        </mxCell>
        <mxCell id="42Uh_s67vXzzx0qO9fMh-86" value="Is PX4 firmware from client? Or is the client strict about PX4 version?" style="rhombus;whiteSpace=wrap;html=1;spacingLeft=0;" parent="1" vertex="1">
          <mxGeometry x="-1010" y="1620" width="140" height="140" as="geometry" />
        </mxCell>
        <mxCell id="42Uh_s67vXzzx0qO9fMh-87" value="Modify and qualify the client firmware with client avionics on a test drone" style="rounded=0;whiteSpace=wrap;html=1;fillColor=#f0a30a;strokeColor=#BD7000;fontColor=#000000;" parent="1" vertex="1">
          <mxGeometry x="-820" y="1650" width="120" height="80" as="geometry" />
        </mxCell>
        <mxCell id="42Uh_s67vXzzx0qO9fMh-88" value="Yes" style="text;html=1;align=center;verticalAlign=middle;whiteSpace=wrap;rounded=0;" parent="1" vertex="1">
          <mxGeometry x="-880" y="1660" width="60" height="30" as="geometry" />
        </mxCell>
        <mxCell id="42Uh_s67vXzzx0qO9fMh-89" value="No" style="text;html=1;align=left;verticalAlign=middle;whiteSpace=wrap;rounded=0;" parent="1" vertex="1">
          <mxGeometry x="-930" y="1770" width="60" height="30" as="geometry" />
        </mxCell>
        <mxCell id="42Uh_s67vXzzx0qO9fMh-90" value="Use DroneLeaf latest supported PX4 firmware" style="rounded=0;whiteSpace=wrap;html=1;" parent="1" vertex="1">
          <mxGeometry x="-1000" y="1810" width="120" height="80" as="geometry" />
        </mxCell>
        <mxCell id="42Uh_s67vXzzx0qO9fMh-91" value="" style="endArrow=classic;html=1;rounded=0;exitX=0.5;exitY=1;exitDx=0;exitDy=0;" parent="1" source="42Uh_s67vXzzx0qO9fMh-86" target="42Uh_s67vXzzx0qO9fMh-90" edge="1">
          <mxGeometry width="50" height="50" relative="1" as="geometry">
            <mxPoint x="-720" y="1610" as="sourcePoint" />
            <mxPoint x="-670" y="1560" as="targetPoint" />
          </mxGeometry>
        </mxCell>
        <mxCell id="42Uh_s67vXzzx0qO9fMh-92" style="edgeStyle=orthogonalEdgeStyle;rounded=0;orthogonalLoop=1;jettySize=auto;html=1;exitX=0.5;exitY=1;exitDx=0;exitDy=0;entryX=0.5;entryY=0;entryDx=0;entryDy=0;" parent="1" edge="1">
          <mxGeometry relative="1" as="geometry">
            <mxPoint x="29.5" y="2130" as="sourcePoint" />
            <mxPoint x="29.5" y="2160" as="targetPoint" />
          </mxGeometry>
        </mxCell>
        <mxCell id="42Uh_s67vXzzx0qO9fMh-93" value="&lt;div&gt;Drone has been tuned&lt;br&gt;Drone switches to RC position control mode. User can land the drone through QGC.&lt;/div&gt;" style="rounded=0;whiteSpace=wrap;html=1;" parent="1" vertex="1">
          <mxGeometry x="-60" y="2160" width="180" height="80" as="geometry" />
        </mxCell>
        <mxCell id="42Uh_s67vXzzx0qO9fMh-94" style="edgeStyle=orthogonalEdgeStyle;rounded=0;orthogonalLoop=1;jettySize=auto;html=1;exitX=0.5;exitY=1;exitDx=0;exitDy=0;entryX=0.5;entryY=0;entryDx=0;entryDy=0;" parent="1" source="42Uh_s67vXzzx0qO9fMh-95" target="42Uh_s67vXzzx0qO9fMh-62" edge="1">
          <mxGeometry relative="1" as="geometry" />
        </mxCell>
        <mxCell id="42Uh_s67vXzzx0qO9fMh-95" value="&lt;div&gt;Tuning parameters are uploaded to PX4 and verified.&lt;br&gt;(manual, not automated yet)&lt;/div&gt;" style="rounded=0;whiteSpace=wrap;html=1;" parent="1" vertex="1">
          <mxGeometry x="-60" y="2280" width="180" height="80" as="geometry" />
        </mxCell>
        <mxCell id="42Uh_s67vXzzx0qO9fMh-96" style="edgeStyle=orthogonalEdgeStyle;rounded=0;orthogonalLoop=1;jettySize=auto;html=1;exitX=0.5;exitY=1;exitDx=0;exitDy=0;entryX=0.5;entryY=0;entryDx=0;entryDy=0;" parent="1" source="42Uh_s67vXzzx0qO9fMh-93" target="42Uh_s67vXzzx0qO9fMh-95" edge="1">
          <mxGeometry relative="1" as="geometry">
            <mxPoint x="39.5" y="2140" as="sourcePoint" />
            <mxPoint x="39.5" y="2170" as="targetPoint" />
          </mxGeometry>
        </mxCell>
        <mxCell id="42Uh_s67vXzzx0qO9fMh-101" value="Make sure the drone is mechanically:&amp;nbsp;&lt;div&gt;- Balanced around roll/pitch&lt;/div&gt;&lt;div&gt;- Propulsion system is firm and is in the anti-gravity direction&lt;/div&gt;" style="rounded=0;whiteSpace=wrap;html=1;" parent="1" vertex="1">
          <mxGeometry x="660" y="1555" width="160" height="100" as="geometry" />
        </mxCell>
        <mxCell id="42Uh_s67vXzzx0qO9fMh-102" style="edgeStyle=orthogonalEdgeStyle;rounded=0;orthogonalLoop=1;jettySize=auto;html=1;exitX=0.5;exitY=1;exitDx=0;exitDy=0;entryX=0.5;entryY=0;entryDx=0;entryDy=0;" parent="1" source="42Uh_s67vXzzx0qO9fMh-101" target="42Uh_s67vXzzx0qO9fMh-104" edge="1">
          <mxGeometry relative="1" as="geometry">
            <mxPoint x="750" y="1525" as="sourcePoint" />
            <mxPoint x="740" y="1685" as="targetPoint" />
          </mxGeometry>
        </mxCell>
        <mxCell id="42Uh_s67vXzzx0qO9fMh-103" style="edgeStyle=orthogonalEdgeStyle;rounded=0;orthogonalLoop=1;jettySize=auto;html=1;exitX=0.5;exitY=1;exitDx=0;exitDy=0;entryX=0.5;entryY=0;entryDx=0;entryDy=0;" parent="1" source="42Uh_s67vXzzx0qO9fMh-104" target="42Uh_s67vXzzx0qO9fMh-106" edge="1">
          <mxGeometry relative="1" as="geometry" />
        </mxCell>
        <mxCell id="42Uh_s67vXzzx0qO9fMh-104" value="Select proper range for in-flight:&lt;br&gt;- Roll/pitch MRFT h fine-tuning&lt;div&gt;- Control sticks range for u correction&lt;br&gt;- DNN-MRFT pre-processing parameters.&lt;/div&gt;&lt;div&gt;- Yaw control tuning&lt;/div&gt;" style="rounded=0;whiteSpace=wrap;html=1;" parent="1" vertex="1">
          <mxGeometry x="650" y="1675" width="180" height="140" as="geometry" />
        </mxCell>
        <mxCell id="42Uh_s67vXzzx0qO9fMh-105" style="edgeStyle=orthogonalEdgeStyle;rounded=0;orthogonalLoop=1;jettySize=auto;html=1;exitX=0.5;exitY=1;exitDx=0;exitDy=0;entryX=0.5;entryY=0;entryDx=0;entryDy=0;" parent="1" source="42Uh_s67vXzzx0qO9fMh-106" target="42Uh_s67vXzzx0qO9fMh-109" edge="1">
          <mxGeometry relative="1" as="geometry" />
        </mxCell>
        <mxCell id="42Uh_s67vXzzx0qO9fMh-106" value="Make sure the sensors are properly calibrated:&lt;div&gt;- Gyro bias elimination&lt;/div&gt;&lt;div&gt;- Level horizon is correct&lt;/div&gt;&lt;div&gt;- Position measurements are precise and repeatable&lt;/div&gt;&lt;div&gt;- Spatio temporal calibration is performed&lt;/div&gt;&lt;div&gt;- Compass and heading estimation is correct&lt;/div&gt;" style="rounded=0;whiteSpace=wrap;html=1;" parent="1" vertex="1">
          <mxGeometry x="650" y="1835" width="180" height="150" as="geometry" />
        </mxCell>
        <mxCell id="42Uh_s67vXzzx0qO9fMh-107" value="Make sure the drone is connected to the cloud all the time and it is licensed" style="rounded=0;whiteSpace=wrap;html=1;" parent="1" vertex="1">
          <mxGeometry x="650" y="2095" width="180" height="70" as="geometry" />
        </mxCell>
        <mxCell id="42Uh_s67vXzzx0qO9fMh-108" style="edgeStyle=orthogonalEdgeStyle;rounded=0;orthogonalLoop=1;jettySize=auto;html=1;exitX=0.5;exitY=1;exitDx=0;exitDy=0;entryX=0.5;entryY=0;entryDx=0;entryDy=0;" parent="1" source="42Uh_s67vXzzx0qO9fMh-109" target="42Uh_s67vXzzx0qO9fMh-107" edge="1">
          <mxGeometry relative="1" as="geometry" />
        </mxCell>
        <mxCell id="42Uh_s67vXzzx0qO9fMh-109" value="Make sure RC settings fit the drone.&lt;div&gt;Make sure PX4 settings are properly loaded.&lt;/div&gt;" style="rounded=0;whiteSpace=wrap;html=1;" parent="1" vertex="1">
          <mxGeometry x="650" y="2005" width="180" height="70" as="geometry" />
        </mxCell>
        <mxCell id="42Uh_s67vXzzx0qO9fMh-110" style="edgeStyle=orthogonalEdgeStyle;rounded=0;orthogonalLoop=1;jettySize=auto;html=1;exitX=0.5;exitY=1;exitDx=0;exitDy=0;entryX=0.5;entryY=0;entryDx=0;entryDy=0;" parent="1" source="42Uh_s67vXzzx0qO9fMh-111" target="42Uh_s67vXzzx0qO9fMh-114" edge="1">
          <mxGeometry relative="1" as="geometry" />
        </mxCell>
        <mxCell id="42Uh_s67vXzzx0qO9fMh-111" value="START" style="rounded=1;whiteSpace=wrap;html=1;fontSize=14;fillColor=#60a917;fontColor=#ffffff;strokeColor=#2D7600;" parent="1" vertex="1">
          <mxGeometry x="-620" y="1605" width="120" height="30" as="geometry" />
        </mxCell>
        <mxCell id="42Uh_s67vXzzx0qO9fMh-112" value="Additional PX4 checks" style="text;html=1;align=left;verticalAlign=middle;whiteSpace=wrap;rounded=0;" parent="1" vertex="1">
          <mxGeometry x="-1030" y="1565" width="130" height="30" as="geometry" />
        </mxCell>
        <mxCell id="42Uh_s67vXzzx0qO9fMh-113" style="edgeStyle=orthogonalEdgeStyle;rounded=0;orthogonalLoop=1;jettySize=auto;html=1;exitX=0.5;exitY=1;exitDx=0;exitDy=0;entryX=0.5;entryY=0;entryDx=0;entryDy=0;" parent="1" source="42Uh_s67vXzzx0qO9fMh-114" target="42Uh_s67vXzzx0qO9fMh-119" edge="1">
          <mxGeometry relative="1" as="geometry" />
        </mxCell>
        <mxCell id="42Uh_s67vXzzx0qO9fMh-114" value="Refine MRFT amplitude to minimize oscillations amplitude" style="rounded=0;whiteSpace=wrap;html=1;" parent="1" vertex="1">
          <mxGeometry x="-650" y="1720" width="180" height="70" as="geometry" />
        </mxCell>
        <mxCell id="42Uh_s67vXzzx0qO9fMh-118" style="edgeStyle=orthogonalEdgeStyle;rounded=0;orthogonalLoop=1;jettySize=auto;html=1;exitX=0.5;exitY=1;exitDx=0;exitDy=0;entryX=0.5;entryY=0;entryDx=0;entryDy=0;" parent="1" source="42Uh_s67vXzzx0qO9fMh-119" target="42Uh_s67vXzzx0qO9fMh-75" edge="1">
          <mxGeometry relative="1" as="geometry" />
        </mxCell>
        <mxCell id="42Uh_s67vXzzx0qO9fMh-119" value="Get initial yaw and yaw rate tuning" style="rounded=0;whiteSpace=wrap;html=1;" parent="1" vertex="1">
          <mxGeometry x="-650" y="1870" width="180" height="70" as="geometry" />
        </mxCell>
        <mxCell id="42Uh_s67vXzzx0qO9fMh-120" value="* Refer to flight modes document" style="text;html=1;align=left;verticalAlign=bottom;whiteSpace=wrap;rounded=0;" parent="1" vertex="1">
          <mxGeometry x="-460" y="2210" width="190" height="30" as="geometry" />
        </mxCell>
        <mxCell id="42Uh_s67vXzzx0qO9fMh-121" value="* Refer to the automatic tuning document" style="text;html=1;align=left;verticalAlign=bottom;whiteSpace=wrap;rounded=0;" parent="1" vertex="1">
          <mxGeometry x="130" y="1630" width="240" height="30" as="geometry" />
        </mxCell>
        <mxCell id="42Uh_s67vXzzx0qO9fMh-122" value="* Refer to the flight modes and flight status" style="text;html=1;align=left;verticalAlign=bottom;whiteSpace=wrap;rounded=0;" parent="1" vertex="1">
          <mxGeometry x="130" y="1750" width="240" height="30" as="geometry" />
        </mxCell>
        <mxCell id="42Uh_s67vXzzx0qO9fMh-123" value="&lt;span style=&quot;color: rgba(0, 0, 0, 0); font-family: monospace; font-size: 0px; text-align: start; text-wrap-mode: nowrap;&quot;&gt;%3CmxGraphModel%3E%3Croot%3E%3CmxCell%20id%3D%220%22%2F%3E%3CmxCell%20id%3D%221%22%20parent%3D%220%22%2F%3E%3CmxCell%20id%3D%222%22%20value%3D%22Take-off%20%E2%9E%9C%20Fly%20to%20room%20centre%20with%20joystick%26amp%3Bnbsp%3B%E2%9E%9C%20Pitch%20MRFT%20%E2%9E%9C%20Roll%20MRFT%26amp%3Bnbsp%3B%E2%9E%9C%20Z%20MRFT%20%E2%9E%9C%20Land%22%20style%3D%22rounded%3D0%3BwhiteSpace%3Dwrap%3Bhtml%3D1%3B%22%20vertex%3D%221%22%20parent%3D%221%22%3E%3CmxGeometry%20x%3D%221100%22%20y%3D%22400%22%20width%3D%22160%22%20height%3D%2280%22%20as%3D%22geometry%22%2F%3E%3C%2FmxCell%3E%3C%2Froot%3E%3C%2FmxGraphModel%3E&lt;/span&gt;" style="rounded=1;whiteSpace=wrap;html=1;fillColor=none;dashed=1;" parent="1" vertex="1">
          <mxGeometry x="-580" y="420" width="970" height="120" as="geometry" />
        </mxCell>
        <mxCell id="42Uh_s67vXzzx0qO9fMh-124" value="" style="edgeStyle=orthogonalEdgeStyle;rounded=0;orthogonalLoop=1;jettySize=auto;html=1;entryX=0;entryY=0.5;entryDx=0;entryDy=0;" parent="1" source="42Uh_s67vXzzx0qO9fMh-125" target="42Uh_s67vXzzx0qO9fMh-126" edge="1">
          <mxGeometry relative="1" as="geometry" />
        </mxCell>
        <mxCell id="42Uh_s67vXzzx0qO9fMh-125" value="Take-off&amp;nbsp;" style="rounded=0;whiteSpace=wrap;html=1;" parent="1" vertex="1">
          <mxGeometry x="-310" y="440" width="90" height="80" as="geometry" />
        </mxCell>
        <mxCell id="1Y_QxRR68OOjBjmYuC9b-2" value="" style="edgeStyle=orthogonalEdgeStyle;rounded=0;orthogonalLoop=1;jettySize=auto;html=1;" edge="1" parent="1" source="42Uh_s67vXzzx0qO9fMh-126" target="42Uh_s67vXzzx0qO9fMh-128">
          <mxGeometry relative="1" as="geometry" />
        </mxCell>
        <mxCell id="42Uh_s67vXzzx0qO9fMh-126" value="&amp;nbsp;The drone will begin oscillating immediately to tune the Roll, Pitch, Z and then the X and Y.&amp;nbsp;" style="rounded=0;whiteSpace=wrap;html=1;" parent="1" vertex="1">
          <mxGeometry x="-170" y="440" width="190" height="80" as="geometry" />
        </mxCell>
        <mxCell id="Ub7T0pqwvzMlkmULe2ej-14" style="edgeStyle=orthogonalEdgeStyle;rounded=0;orthogonalLoop=1;jettySize=auto;html=1;exitX=1;exitY=0.5;exitDx=0;exitDy=0;entryX=0;entryY=0.5;entryDx=0;entryDy=0;" parent="1" source="42Uh_s67vXzzx0qO9fMh-128" target="Ub7T0pqwvzMlkmULe2ej-1" edge="1">
          <mxGeometry relative="1" as="geometry" />
        </mxCell>
        <mxCell id="42Uh_s67vXzzx0qO9fMh-128" value="After around 30 seconds of stable flight the drone will have learned it&#39;s PID parameters&amp;nbsp;" style="rounded=0;whiteSpace=wrap;html=1;" parent="1" vertex="1">
          <mxGeometry x="60" y="440" width="160" height="80" as="geometry" />
        </mxCell>
        <mxCell id="42Uh_s67vXzzx0qO9fMh-129" value="Apply FSAC. Get Initial Tuning" style="text;strokeColor=none;align=center;fillColor=none;html=1;verticalAlign=middle;whiteSpace=wrap;rounded=0;" parent="1" vertex="1">
          <mxGeometry x="-168.75" y="390" width="187.5" height="30" as="geometry" />
        </mxCell>
        <mxCell id="1Y_QxRR68OOjBjmYuC9b-3" value="" style="edgeStyle=orthogonalEdgeStyle;rounded=0;orthogonalLoop=1;jettySize=auto;html=1;" edge="1" parent="1" source="Ub7T0pqwvzMlkmULe2ej-1" target="Ub7T0pqwvzMlkmULe2ej-11">
          <mxGeometry relative="1" as="geometry" />
        </mxCell>
        <mxCell id="Ub7T0pqwvzMlkmULe2ej-1" value="&lt;div&gt;Land&lt;/div&gt;" style="rounded=0;whiteSpace=wrap;html=1;" parent="1" vertex="1">
          <mxGeometry x="270" y="440" width="90" height="80" as="geometry" />
        </mxCell>
        <mxCell id="Ub7T0pqwvzMlkmULe2ej-9" value="" style="edgeStyle=orthogonalEdgeStyle;rounded=0;orthogonalLoop=1;jettySize=auto;html=1;" parent="1" source="Ub7T0pqwvzMlkmULe2ej-4" edge="1">
          <mxGeometry relative="1" as="geometry">
            <mxPoint x="869.9999999999995" y="479.9999999999998" as="targetPoint" />
          </mxGeometry>
        </mxCell>
        <mxCell id="Ub7T0pqwvzMlkmULe2ej-11" value="FSAC Complete :)" style="rounded=1;whiteSpace=wrap;html=1;" parent="1" vertex="1">
          <mxGeometry x="430" y="450" width="120" height="60" as="geometry" />
        </mxCell>
        <mxCell id="Ub7T0pqwvzMlkmULe2ej-15" style="edgeStyle=orthogonalEdgeStyle;rounded=0;orthogonalLoop=1;jettySize=auto;html=1;exitX=1;exitY=0.5;exitDx=0;exitDy=0;entryX=0;entryY=0.5;entryDx=0;entryDy=0;" parent="1" source="Ub7T0pqwvzMlkmULe2ej-13" target="42Uh_s67vXzzx0qO9fMh-125" edge="1">
          <mxGeometry relative="1" as="geometry" />
        </mxCell>
        <mxCell id="Ub7T0pqwvzMlkmULe2ej-13" value="Refine MRFT amplitude to minimize oscillations amplitude" style="rounded=0;whiteSpace=wrap;html=1;" parent="1" vertex="1">
          <mxGeometry x="-540" y="445" width="180" height="70" as="geometry" />
        </mxCell>
        <mxCell id="Ub7T0pqwvzMlkmULe2ej-17" value="&lt;b&gt;Important to Note:&lt;br&gt;&lt;/b&gt;&lt;div&gt;FSAC: full battery&lt;br&gt;Bias: no wind, oscillations&lt;br&gt;Tune with updated CTW from hover (BIAS Calibration)&lt;br&gt;Never tune with payload and fly with less payload&lt;/div&gt;" style="rounded=0;whiteSpace=wrap;html=1;" parent="1" vertex="1">
          <mxGeometry x="-1040" y="560" width="250" height="170" as="geometry" />
        </mxCell>
        <mxCell id="1Y_QxRR68OOjBjmYuC9b-1" style="edgeStyle=orthogonalEdgeStyle;rounded=0;orthogonalLoop=1;jettySize=auto;html=1;exitX=0.5;exitY=1;exitDx=0;exitDy=0;" edge="1" parent="1" source="42Uh_s67vXzzx0qO9fMh-126" target="42Uh_s67vXzzx0qO9fMh-126">
          <mxGeometry relative="1" as="geometry" />
        </mxCell>
      </root>
    </mxGraphModel>
  </diagram>
</mxfile>
